<svg width="56" height="38" viewBox="0 0 56 38" fill="none" xmlns="http://www.w3.org/2000/svg">
<path d="M53.9819 5.94145C53.6732 4.79452 53.0686 3.7488 52.2288 2.90894C51.3889 2.06908 50.3432 1.46454 49.1962 1.15582C44.9725 0.0126957 28 0.0126953 28 0.0126953C28 0.0126953 11.0275 0.0126957 6.80374 1.15582C5.65682 1.46454 4.6111 2.06908 3.77124 2.90894C2.93137 3.7488 2.32683 4.79452 2.01812 5.94145C1.22945 10.249 0.846731 14.6211 0.874993 19.0002C0.846731 23.3793 1.22945 27.7514 2.01812 32.0589C2.32683 33.2059 2.93137 34.2516 3.77124 35.0915C4.6111 35.9313 5.65682 36.5359 6.80374 36.8446C11.0275 37.9877 28 37.9877 28 37.9877C28 37.9877 44.9725 37.9877 49.1962 36.8446C50.3432 36.5359 51.3889 35.9313 52.2288 35.0915C53.0686 34.2516 53.6732 33.2059 53.9819 32.0589C54.7705 27.7514 55.1533 23.3793 55.125 19.0002C55.1533 14.6211 54.7705 10.249 53.9819 5.94145ZM22.575 27.1377V10.8627L36.6606 19.0002L22.575 27.1377Z" fill="white"/>
</svg>
