<svg width="50" height="50" viewBox="0 0 50 50" fill="none" xmlns="http://www.w3.org/2000/svg">
<path d="M25 13.375C22.7008 13.375 20.4532 14.0568 18.5415 15.3342C16.6298 16.6115 15.1398 18.4271 14.2599 20.5513C13.38 22.6755 13.1498 25.0129 13.5984 27.2679C14.0469 29.523 15.1541 31.5943 16.7799 33.2201C18.4057 34.8459 20.477 35.9531 22.7321 36.4016C24.9871 36.8502 27.3245 36.62 29.4487 35.7401C31.5729 34.8602 33.3885 33.3702 34.6658 31.4585C35.9432 29.5468 36.625 27.2992 36.625 25C36.625 21.9169 35.4002 18.96 33.2201 16.7799C31.04 14.5998 28.0831 13.375 25 13.375ZM25 32.75C23.4672 32.75 21.9688 32.2955 20.6943 31.4439C19.4199 30.5923 18.4265 29.3819 17.8399 27.9658C17.2534 26.5497 17.0999 24.9914 17.3989 23.4881C17.6979 21.9847 18.4361 20.6038 19.5199 19.5199C20.6038 18.4361 21.9847 17.6979 23.4881 17.3989C24.9914 17.0999 26.5497 17.2534 27.9658 17.8399C29.3819 18.4265 30.5923 19.4199 31.4439 20.6943C32.2955 21.9688 32.75 23.4672 32.75 25C32.7436 27.0535 31.925 29.021 30.473 30.473C29.021 31.925 27.0535 32.7436 25 32.75ZM35.6562 0.78125H14.3438C10.7468 0.78125 7.29708 2.21015 4.75361 4.75361C2.21015 7.29708 0.78125 10.7468 0.78125 14.3438V35.6562C0.78125 39.2533 2.21015 42.7029 4.75361 45.2464C7.29708 47.7898 10.7468 49.2188 14.3438 49.2188H35.6562C39.2533 49.2188 42.7029 47.7898 45.2464 45.2464C47.7898 42.7029 49.2188 39.2533 49.2188 35.6562V14.3438C49.2188 10.7468 47.7898 7.29708 45.2464 4.75361C42.7029 2.21015 39.2533 0.78125 35.6562 0.78125ZM45.3438 35.6562C45.3438 36.9284 45.0932 38.1882 44.6063 39.3635C44.1195 40.5388 43.4059 41.6068 42.5063 42.5063C41.6068 43.4059 40.5388 44.1195 39.3635 44.6063C38.1882 45.0932 36.9284 45.3438 35.6562 45.3438H14.3438C13.0716 45.3438 11.8118 45.0932 10.6365 44.6063C9.46116 44.1195 8.39322 43.4059 7.49365 42.5063C6.59409 41.6068 5.88051 40.5388 5.39367 39.3635C4.90682 38.1882 4.65625 36.9284 4.65625 35.6562V14.3438C4.65625 11.7745 5.67689 9.31041 7.49365 7.49365C9.31041 5.67689 11.7745 4.65625 14.3438 4.65625H35.6562C36.9284 4.65625 38.1882 4.90682 39.3635 5.39367C40.5388 5.88051 41.6068 6.59409 42.5063 7.49365C43.4059 8.39322 44.1195 9.46116 44.6063 10.6365C45.0932 11.8118 45.3438 13.0716 45.3438 14.3438V35.6562ZM40.5 12.4062C40.5 12.9811 40.3296 13.5429 40.0102 14.0209C39.6909 14.4988 39.237 14.8713 38.7059 15.0913C38.1749 15.3112 37.5905 15.3688 37.0268 15.2567C36.463 15.1445 35.9452 14.8677 35.5387 14.4613C35.1323 14.0548 34.8555 13.537 34.7433 12.9732C34.6312 12.4095 34.6888 11.8251 34.9087 11.2941C35.1287 10.763 35.5012 10.3091 35.9791 9.98979C36.4571 9.67045 37.0189 9.5 37.5938 9.5C38.3645 9.5 39.1037 9.80619 39.6488 10.3512C40.1938 10.8962 40.5 11.6355 40.5 12.4062Z" fill="white"/>
</svg>
