<svg width="27" height="30" viewBox="0 0 27 30" fill="none" xmlns="http://www.w3.org/2000/svg">
<path d="M3.29167 29.5834C2.48958 29.5834 1.80271 29.298 1.23104 28.7273C0.660347 28.1556 0.375 27.4688 0.375 26.6667V6.25002C0.375 5.44794 0.660347 4.76155 1.23104 4.19085C1.80271 3.61919 2.48958 3.33335 3.29167 3.33335H4.75V0.416687H7.66667V3.33335H19.3333V0.416687H22.25V3.33335H23.7083C24.5104 3.33335 25.1973 3.61919 25.769 4.19085C26.3397 4.76155 26.625 5.44794 26.625 6.25002V26.6667C26.625 27.4688 26.3397 28.1556 25.769 28.7273C25.1973 29.298 24.5104 29.5834 23.7083 29.5834H3.29167ZM3.29167 26.6667H23.7083V12.0834H3.29167V26.6667ZM3.29167 9.16669H23.7083V6.25002H3.29167V9.16669ZM13.5 17.9167C13.0868 17.9167 12.7407 17.7767 12.4617 17.4967C12.1817 17.2177 12.0417 16.8715 12.0417 16.4584C12.0417 16.0452 12.1817 15.6986 12.4617 15.4186C12.7407 15.1395 13.0868 15 13.5 15C13.9132 15 14.2598 15.1395 14.5398 15.4186C14.8188 15.6986 14.9583 16.0452 14.9583 16.4584C14.9583 16.8715 14.8188 17.2177 14.5398 17.4967C14.2598 17.7767 13.9132 17.9167 13.5 17.9167ZM7.66667 17.9167C7.25347 17.9167 6.90688 17.7767 6.62688 17.4967C6.34785 17.2177 6.20833 16.8715 6.20833 16.4584C6.20833 16.0452 6.34785 15.6986 6.62688 15.4186C6.90688 15.1395 7.25347 15 7.66667 15C8.07986 15 8.42646 15.1395 8.70646 15.4186C8.98549 15.6986 9.125 16.0452 9.125 16.4584C9.125 16.8715 8.98549 17.2177 8.70646 17.4967C8.42646 17.7767 8.07986 17.9167 7.66667 17.9167ZM19.3333 17.9167C18.9201 17.9167 18.574 17.7767 18.295 17.4967C18.015 17.2177 17.875 16.8715 17.875 16.4584C17.875 16.0452 18.015 15.6986 18.295 15.4186C18.574 15.1395 18.9201 15 19.3333 15C19.7465 15 20.0926 15.1395 20.3717 15.4186C20.6517 15.6986 20.7917 16.0452 20.7917 16.4584C20.7917 16.8715 20.6517 17.2177 20.3717 17.4967C20.0926 17.7767 19.7465 17.9167 19.3333 17.9167ZM13.5 23.75C13.0868 23.75 12.7407 23.61 12.4617 23.33C12.1817 23.051 12.0417 22.7049 12.0417 22.2917C12.0417 21.8785 12.1817 21.5324 12.4617 21.2534C12.7407 20.9734 13.0868 20.8334 13.5 20.8334C13.9132 20.8334 14.2598 20.9734 14.5398 21.2534C14.8188 21.5324 14.9583 21.8785 14.9583 22.2917C14.9583 22.7049 14.8188 23.051 14.5398 23.33C14.2598 23.61 13.9132 23.75 13.5 23.75ZM7.66667 23.75C7.25347 23.75 6.90688 23.61 6.62688 23.33C6.34785 23.051 6.20833 22.7049 6.20833 22.2917C6.20833 21.8785 6.34785 21.5324 6.62688 21.2534C6.90688 20.9734 7.25347 20.8334 7.66667 20.8334C8.07986 20.8334 8.42646 20.9734 8.70646 21.2534C8.98549 21.5324 9.125 21.8785 9.125 22.2917C9.125 22.7049 8.98549 23.051 8.70646 23.33C8.42646 23.61 8.07986 23.75 7.66667 23.75ZM19.3333 23.75C18.9201 23.75 18.574 23.61 18.295 23.33C18.015 23.051 17.875 22.7049 17.875 22.2917C17.875 21.8785 18.015 21.5324 18.295 21.2534C18.574 20.9734 18.9201 20.8334 19.3333 20.8334C19.7465 20.8334 20.0926 20.9734 20.3717 21.2534C20.6517 21.5324 20.7917 21.8785 20.7917 22.2917C20.7917 22.7049 20.6517 23.051 20.3717 23.33C20.0926 23.61 19.7465 23.75 19.3333 23.75Z" fill="white"/>
</svg>
