<svg width="27" height="27" viewBox="0 0 27 27" fill="none" xmlns="http://www.w3.org/2000/svg">
<path d="M25.1813 18.3982C23.3875 18.3982 21.6521 18.1066 20.0333 17.5816C19.7797 17.4956 19.5071 17.4828 19.2465 17.5448C18.986 17.6067 18.7482 17.7407 18.5604 17.9316L16.2708 20.8045C12.1438 18.8357 8.27917 15.117 6.22292 10.8441L9.06667 8.42323C9.46042 8.0149 9.57708 7.44615 9.41667 6.93573C8.87708 5.31698 8.6 3.58157 8.6 1.78782C8.6 1.00032 7.94375 0.344067 7.15625 0.344067H2.11042C1.32292 0.344067 0.375 0.694067 0.375 1.78782C0.375 15.3357 11.6479 26.5941 25.1813 26.5941C26.2167 26.5941 26.625 25.6753 26.625 24.8732V19.842C26.625 19.0545 25.9688 18.3982 25.1813 18.3982Z" fill="#337AFF"/>
</svg>
