<svg width="27" height="28" viewBox="0 0 27 28" fill="none" xmlns="http://www.w3.org/2000/svg">
<path d="M25.1813 18.9292C23.3875 18.9292 21.6521 18.6375 20.0333 18.1125C19.7797 18.0265 19.5071 18.0138 19.2465 18.0757C18.986 18.1376 18.7482 18.2717 18.5604 18.4625L16.2708 21.3354C12.1437 19.3667 8.27917 15.6479 6.22292 11.375L9.06667 8.95417C9.46042 8.54583 9.57708 7.97708 9.41667 7.46667C8.87708 5.84792 8.6 4.1125 8.6 2.31875C8.6 1.53125 7.94375 0.875 7.15625 0.875H2.11042C1.32292 0.875 0.375 1.225 0.375 2.31875C0.375 15.8667 11.6479 27.125 25.1813 27.125C26.2167 27.125 26.625 26.2063 26.625 25.4042V20.3729C26.625 19.5854 25.9688 18.9292 25.1813 18.9292Z" fill="white"/>
</svg>
