<svg width="83" height="83" viewBox="0 0 83 83" fill="none" xmlns="http://www.w3.org/2000/svg">
<path d="M57.887 59.9762C53.6091 59.9762 49.4393 59.0225 45.3776 57.115C41.3146 55.2088 37.7165 52.6885 34.5833 49.554C31.4488 46.4209 28.9285 42.8228 27.0224 38.7598C25.1149 34.6981 24.1611 30.5283 24.1611 26.2503C24.1611 25.6534 24.3601 25.156 24.7581 24.7581C25.156 24.3601 25.6534 24.1611 26.2503 24.1611H34.3087C34.773 24.1611 35.1875 24.3104 35.5523 24.6088C35.9171 24.9073 36.1327 25.2886 36.199 25.7529L37.4923 32.717C37.5586 33.1812 37.5507 33.6037 37.4684 33.9844C37.3849 34.3664 37.1938 34.7067 36.8954 35.0051L32.12 39.88C33.5128 42.2676 35.2539 44.5061 37.3431 46.5953C39.4323 48.6845 41.737 50.4918 44.2574 52.0173L48.9332 47.3414C49.2317 47.043 49.6217 46.8188 50.1032 46.6689C50.5834 46.5203 51.0556 46.4792 51.5199 46.5456L58.3844 47.9384C58.8487 48.0378 59.2301 48.2614 59.5285 48.6089C59.827 48.9578 59.9762 49.3643 59.9762 49.8286V57.887C59.9762 58.4839 59.7772 58.9813 59.3793 59.3793C58.9813 59.7772 58.4839 59.9762 57.887 59.9762Z" fill="#337AFF"/>
<circle cx="41.5" cy="41.5" r="40" stroke="#337AFF" stroke-width="3"/>
</svg>
