<svg width="86" height="85" viewBox="0 0 86 85" fill="none" xmlns="http://www.w3.org/2000/svg">
<path fill-rule="evenodd" clip-rule="evenodd" d="M75.616 6.41346C75.9527 6.48607 76.2666 6.63955 76.5307 6.86064C76.8053 7.06844 77.0273 7.33787 77.1787 7.64721C77.33 7.95655 77.4066 8.29714 77.4022 8.6415V40.6688C77.4022 41.9244 76.3843 42.9422 75.1287 42.9422C73.8731 42.9422 72.8553 41.9244 72.8553 40.6688V11.5591L53.1522 16.4849V66.3489L55.0345 65.665C56.4082 65.1658 57.8604 66.1832 57.8604 67.6448C57.8604 68.5239 57.3145 69.3106 56.4909 69.6182L51.4471 71.5021H50.4619L50.1967 71.4263H50.1209L49.8557 71.3126L26.3635 59.5665L2.94709 65.4017L2.37873 65.4774C1.86839 65.481 1.37272 65.3069 0.976774 64.9849C0.708499 64.7713 0.491115 64.5006 0.340382 64.1926C0.189649 63.8846 0.109345 63.5469 0.10529 63.204V8.6415C0.101401 8.13128 0.272166 7.63508 0.589225 7.23531C0.906284 6.83554 1.35056 6.55626 1.84826 6.44385L26.0983 0.381348H27.0455C27.0834 0.381348 27.1213 0.381347 27.1213 0.419238H27.3865L27.6139 0.532909H27.6518L51.144 12.279L74.5983 6.44385C74.93 6.35127 75.2793 6.34084 75.616 6.41346ZM24.3553 5.49658L4.65216 10.4224V60.2864L24.3553 55.3606V5.49658ZM28.9022 55.7396L48.6053 65.5911V16.106L28.9022 6.25439V55.7396Z" fill="#337AFF"/>
<path d="M72.538 53.7592C73.8074 53.7592 75.0248 54.2803 75.9224 55.2078C76.82 56.1353 77.3242 57.3933 77.3242 58.705C77.3242 60.0166 76.82 61.2746 75.9224 62.2021C75.0248 63.1296 73.8074 63.6507 72.538 63.6507C71.2687 63.6507 70.0513 63.1296 69.1537 62.2021C68.2561 61.2746 67.7519 60.0166 67.7519 58.705C67.7519 57.3933 68.2561 56.1353 69.1537 55.2078C70.0513 54.2803 71.2687 53.7592 72.538 53.7592ZM72.538 44.8569C79.947 44.8569 85.9394 51.049 85.9394 58.705C85.9394 69.091 72.538 84.4227 72.538 84.4227C72.538 84.4227 59.1367 69.091 59.1367 58.705C59.1367 51.049 65.129 44.8569 72.538 44.8569ZM62.9657 58.705C62.9657 60.6832 62.9657 64.6398 72.538 77.9141C82.1104 64.6398 82.1104 60.6832 82.1104 58.705C82.1104 53.2449 77.822 48.8135 72.538 48.8135C67.2541 48.8135 62.9657 53.2449 62.9657 58.705Z" fill="#337AFF"/>
</svg>
