<svg width="91" height="68" viewBox="0 0 91 68" fill="none" xmlns="http://www.w3.org/2000/svg">
<path d="M11.3449 0.763625C10.9488 0.415459 10.3505 0.434696 9.97757 0.807586L7.52959 3.25557C7.11755 3.6676 7.14367 4.34325 7.58627 4.72225L40.1504 32.6069C40.3723 32.7969 40.5 33.0744 40.5 33.3665V41.8477C40.5 42.3999 40.9477 42.8477 41.5 42.8477H46.9102C47.4624 42.8477 47.9102 42.3999 47.9102 41.8477V33.3586C47.9102 33.0711 47.7864 32.7974 47.5704 32.6076L11.3449 0.763625ZM7.40564 9.80622C6.78393 9.14996 5.67969 9.58997 5.67969 10.494V23.1357C5.67969 23.4685 5.84518 23.7794 6.12117 23.9652L6.46289 24.1953C8.52539 25.5625 9.3418 26.9492 9.57422 28.0625C9.80469 29.1953 9.49023 30.1719 8.82226 30.9727C7.61739 32.4304 5.43485 33.2091 3.18648 31.5189C2.74307 31.1856 2.1114 31.1758 1.72039 31.5692L0.649462 32.6469C0.260452 33.0383 0.258962 33.6765 0.688976 34.0224C4.36005 36.9755 9.12082 36.1067 11.5215 33.2383C12.8066 31.6953 13.4688 29.5469 13.0156 27.3594C12.6402 25.5282 11.4716 23.7485 9.58226 22.1974C9.34169 21.9999 9.19531 21.7081 9.19531 21.3968V12.0938C9.19531 11.8379 9.09724 11.5918 8.92127 11.406L7.40564 9.80622ZM57.0742 18.2383C56.5219 18.2383 56.0742 18.686 56.0742 19.2383V45.3633C56.0742 45.9156 55.6265 46.3633 55.0742 46.3633H19.9414C24.1074 47.4324 27.473 50.5718 28.8398 54.6158C28.9844 55.0435 29.376 55.3477 29.8275 55.3477H60.0558C60.5071 55.3477 60.8986 55.0436 61.0432 54.6161C62.7396 49.6004 67.494 45.9727 73.0664 45.9727C78.6388 45.9727 83.3932 49.6004 85.0896 54.6161C85.2342 55.0436 85.6257 55.3477 86.077 55.3477H89.0586C89.6109 55.3477 90.0586 54.8999 90.0586 54.3477V39.0897C90.0586 38.9157 90.0132 38.7448 89.9269 38.5937L78.5887 18.7423C78.4107 18.4306 78.0793 18.2383 77.7203 18.2383H57.0742ZM63.1055 21.9727C63.1055 21.4204 63.5532 20.9727 64.1055 20.9727H74.6655C75.0182 20.9727 75.3448 21.1584 75.5251 21.4616L85.0195 37.4304C85.4159 38.0969 84.9355 38.9414 84.16 38.9414H64.1055C63.5532 38.9414 63.1055 38.4937 63.1055 37.9414V22.7305V21.9727ZM1.59523 46.3633C0.944658 46.3633 0.4673 46.9747 0.625087 47.6058L2.37118 54.5902C2.48247 55.0354 2.88246 55.3477 3.34132 55.3477H3.79817C4.24937 55.3477 4.64078 55.0439 4.78549 54.6165C6.15483 50.5722 9.51597 47.4325 13.6914 46.3633H1.59523ZM16.8164 49.4883C11.7227 49.4883 7.63281 53.5703 7.63281 58.668C7.63281 63.7656 11.7227 67.8477 16.8164 67.8477C21.9141 67.8477 25.9961 63.7656 25.9961 58.668C25.9961 53.5703 21.9141 49.4883 16.8164 49.4883ZM73.0664 49.4883C67.9688 49.4883 63.8867 53.5703 63.8867 58.668C63.8867 63.7656 67.9688 67.8477 73.0664 67.8477C78.1641 67.8477 82.2461 63.7656 82.2461 58.668C82.2461 53.5703 78.1641 49.4883 73.0664 49.4883Z" fill="#337AFF"/>
</svg>
