<svg width="146" height="148" viewBox="0 0 146 148" fill="none" xmlns="http://www.w3.org/2000/svg">
<g clip-path="url(#clip0_411_512)">
<path d="M98.7499 90.9663C97.4552 90.9656 96.1643 90.8268 94.899 90.5524L88.0157 89.0324C87.6423 88.9603 87.287 88.814 86.9709 88.6021C86.6548 88.3901 86.3842 88.1168 86.1752 87.7983C85.9661 87.4798 85.8229 87.1225 85.7538 86.7476C85.6848 86.3727 85.6913 85.9877 85.7731 85.6153C85.8549 85.243 86.0103 84.8908 86.23 84.5797C86.4498 84.2685 86.7295 84.0046 87.0527 83.8036C87.3758 83.6026 87.7359 83.4686 88.1116 83.4094C88.4872 83.3502 88.871 83.367 89.24 83.4589L96.0948 84.9718C98.8857 85.5762 101.799 85.2066 104.352 83.9244C106.904 82.6421 108.944 80.5241 110.132 77.9211L129.942 34.1253L84.8837 79.8693C84.6236 80.1468 84.3107 80.3694 83.9635 80.5238C83.6163 80.6782 83.2417 80.7614 82.8619 80.7685C82.4821 80.7756 82.1048 80.7064 81.752 80.565C81.3993 80.4237 81.0784 80.213 80.8081 79.9454C80.5379 79.6778 80.3237 79.3586 80.1784 79.0068C80.033 78.6549 79.9594 78.2775 79.9617 77.8967C79.9641 77.5158 80.0424 77.1393 80.1922 76.7893C80.3419 76.4393 80.56 76.1229 80.8335 75.8587L137.067 18.7679C137.536 18.2914 138.158 17.9956 138.823 17.9322C139.488 17.8689 140.154 18.042 140.705 18.4214C141.256 18.8008 141.656 19.3622 141.835 20.0074C142.014 20.6526 141.962 21.3405 141.686 21.9507L115.349 80.2832C113.89 83.4679 111.551 86.1666 108.609 88.06C105.667 89.9533 102.246 90.9619 98.7499 90.9663Z" fill="white"/>
<path d="M93.9165 69.5287C93.7862 69.5391 93.6553 69.5391 93.525 69.5287C93.1534 69.4754 92.796 69.349 92.4734 69.1568C92.1507 68.9645 91.8691 68.7102 91.6449 68.4084C91.4206 68.1066 91.2581 67.7634 91.1666 67.3984C91.0752 67.0334 91.0566 66.6539 91.112 66.2817L95.4256 34.8817L78.7193 59.6948C78.5291 60.0441 78.2681 60.3497 77.9531 60.5919C77.6381 60.8341 77.276 61.0076 76.8902 61.1013C76.5044 61.1949 76.1033 61.2066 75.7127 61.1357C75.322 61.0647 74.9505 60.9126 74.622 60.6892C74.2935 60.4658 74.0152 60.176 73.805 59.8384C73.5948 59.5008 73.4573 59.1228 73.4014 58.7288C73.3455 58.3347 73.3724 57.9333 73.4804 57.5504C73.5884 57.1674 73.7751 56.8113 74.0285 56.5049L97.5183 21.5154C97.8777 20.9806 98.4071 20.5835 99.0203 20.3889C99.6336 20.1943 100.294 20.2136 100.895 20.4437C101.496 20.6737 102.002 21.101 102.329 21.6558C102.657 22.2107 102.788 22.8604 102.7 23.4993L96.7211 67.031C96.6348 67.7173 96.3029 68.3489 95.7871 68.8084C95.2712 69.2678 94.6065 69.5238 93.9165 69.5287Z" fill="white"/>
<path d="M84.6488 69.5282C84.2675 69.5277 83.8902 69.4503 83.5393 69.3007C83.1883 69.1512 82.8709 68.9325 82.6059 68.6576L74.7404 60.5293C72.6165 58.3501 69.7735 57.0213 66.7432 56.7915C63.7129 56.5616 60.7029 57.4464 58.2761 59.2804C55.1181 61.657 51.2772 62.9439 47.3285 62.9485H2.84725C2.09211 62.9485 1.3679 62.6478 0.833941 62.1124C0.299978 61.5771 0 60.851 0 60.094C0 59.3369 0.299978 58.6108 0.833941 58.0755C1.3679 57.5402 2.09211 57.2394 2.84725 57.2394H47.3285C50.0398 57.2363 52.6771 56.3525 54.8452 54.7203C58.3851 52.0515 62.7741 50.7683 67.19 51.1112C71.6059 51.454 75.7455 53.3994 78.8333 56.5829L86.6633 64.7041C87.0539 65.1064 87.3175 65.6154 87.4211 66.1672C87.5247 66.719 87.4636 67.2892 87.2456 67.8065C87.0275 68.3237 86.6621 68.7649 86.1952 69.075C85.7282 69.385 85.1804 69.5501 84.6203 69.5496L84.6488 69.5282Z" fill="white"/>
<path d="M143.153 130.009C142.887 130.021 142.621 129.995 142.363 129.931L95.383 116.857C79.4391 112.45 65.8584 101.943 57.5644 87.5981L52.1688 78.2566C51.9532 77.9321 51.8063 77.5667 51.737 77.183C51.6677 76.7992 51.6775 76.4054 51.7659 76.0256C51.8543 75.6459 52.0194 75.2883 52.2509 74.975C52.4825 74.6617 52.7756 74.3992 53.1122 74.2039C53.4488 74.0085 53.8218 73.8844 54.2081 73.8391C54.5945 73.7939 54.9859 73.8284 55.3584 73.9407C55.7309 74.053 56.0765 74.2406 56.3739 74.4919C56.6712 74.7433 56.9141 75.053 57.0875 75.4021L62.5115 84.7293C70.066 97.7779 82.4264 107.333 96.9348 111.341L133.821 121.589L110.395 97.3892C110.126 97.1221 109.912 96.8038 109.767 96.453C109.622 96.1021 109.548 95.7258 109.55 95.3459C109.551 94.9661 109.629 94.5904 109.777 94.2409C109.926 93.8915 110.142 93.5752 110.414 93.3107C110.686 93.0461 111.008 92.8387 111.361 92.7004C111.714 92.5622 112.091 92.496 112.469 92.5056C112.848 92.5153 113.221 92.6006 113.566 92.7566C113.912 92.9126 114.223 93.1362 114.481 93.4142L145.21 125.164C145.601 125.566 145.864 126.075 145.968 126.627C146.071 127.179 146.01 127.749 145.792 128.266C145.574 128.783 145.209 129.225 144.742 129.535C144.275 129.845 143.727 130.01 143.167 130.009H143.153Z" fill="white"/>
</g>
<defs>
<clipPath id="clip0_411_512">
<rect width="146" height="148" fill="white"/>
</clipPath>
</defs>
</svg>
