<svg width="52" height="52" viewBox="0 0 52 52" fill="none" xmlns="http://www.w3.org/2000/svg">
<path d="M25.9998 0.166504C11.7398 0.166504 0.166504 11.7398 0.166504 25.9998C0.166504 40.2598 11.7398 51.8332 25.9998 51.8332C40.2598 51.8332 51.8332 40.2598 51.8332 25.9998C51.8332 11.7398 40.2598 0.166504 25.9998 0.166504ZM37.9865 17.7332C37.599 21.8148 35.9198 31.7348 35.0673 36.3073C34.7057 38.2448 33.9823 38.8907 33.3107 38.9682C31.8123 39.0973 30.6757 37.9865 29.229 37.0307C26.9557 35.5323 25.664 34.6023 23.4682 33.1557C20.9107 31.4765 22.564 30.5465 24.0365 29.0482C24.424 28.6607 31.0373 22.6415 31.1665 22.099C31.1844 22.0168 31.1821 21.9315 31.1596 21.8505C31.137 21.7695 31.0951 21.6951 31.0373 21.634C30.8823 21.5048 30.6757 21.5565 30.4948 21.5823C30.2623 21.634 26.6457 24.0365 19.5932 28.7898C18.5598 29.4873 17.6298 29.849 16.8032 29.8232C15.8732 29.7973 14.1165 29.3065 12.799 28.8673C11.1715 28.3507 9.90567 28.0665 10.009 27.1623C10.0607 26.6973 10.7065 26.2323 11.9207 25.7415C19.464 22.4607 24.4757 20.2907 26.9815 19.2573C34.1632 16.2607 35.6357 15.744 36.6173 15.744C36.824 15.744 37.3148 15.7957 37.6248 16.054C37.8832 16.2607 37.9607 16.5448 37.9865 16.7515C37.9607 16.9065 38.0123 17.3715 37.9865 17.7332Z" fill="white"/>
</svg>
